<?xml version="1.0" standalone="no"?>
<!DOCTYPE svg PUBLIC "-//W3C//DTD SVG 20010904//EN"
 "http://www.w3.org/TR/2001/REC-SVG-20010904/DTD/svg10.dtd">
<svg version="1.0" xmlns="http://www.w3.org/2000/svg"
 width="330.000000pt" height="330.000000pt" viewBox="0 0 330.000000 330.000000"
 preserveAspectRatio="xMidYMid meet">

<g transform="translate(0.000000,330.000000) scale(0.100000,-0.100000)"
fill="#000000" stroke="none">
<path d="M0 1650 l0 -1650 1650 0 1650 0 0 1650 0 1650 -1650 0 -1650 0 0
-1650z m1713 783 c-7 -2 -19 -2 -25 0 -7 3 -2 5 12 5 14 0 19 -2 13 -5z m-116
-9 c-3 -3 -12 -4 -19 -1 -8 3 -5 6 6 6 11 1 17 -2 13 -5z m226 -1 c-7 -2 -21
-2 -30 0 -10 3 -4 5 12 5 17 0 24 -2 18 -5z m-276 -9 c-3 -3 -12 -4 -19 -1 -8
3 -5 6 6 6 11 1 17 -2 13 -5z m443 -34 c8 -5 11 -10 5 -10 -5 0 -17 5 -25 10
-8 5 -10 10 -5 10 6 0 17 -5 25 -10z m-295 -20 c15 -6 6 -9 -32 -9 -29 -1 -53
4 -53 9 0 12 57 12 85 0z m118 3 c-7 -2 -21 -2 -30 0 -10 3 -4 5 12 5 17 0 24
-2 18 -5z m-238 -11 c-6 -5 -37 -15 -70 -22 -94 -20 -180 -58 -263 -118 -111
-78 -112 -79 -58 -28 58 56 202 129 306 156 86 22 98 23 85 12z m302 2 c-3 -3
-12 -4 -19 -1 -8 3 -5 6 6 6 11 1 17 -2 13 -5z m245 -43 c96 -64 167 -136 234
-237 92 -139 145 -275 125 -324 l-10 -25 0 26 c-2 50 -47 187 -82 245 -51 85
-162 193 -259 252 -46 29 -80 52 -75 52 14 0 117 -60 158 -92 20 -16 37 -25
37 -19 0 13 -120 109 -180 144 -25 15 -40 27 -33 27 6 0 44 -22 85 -49z m-329
32 c-7 -2 -19 -2 -25 0 -7 3 -2 5 12 5 14 0 19 -2 13 -5z m-478 -13 c-3 -5
-12 -10 -18 -10 -7 0 -6 4 3 10 19 12 23 12 15 0z m615 -20 c18 -12 2 -12 -25
0 -13 6 -15 9 -5 9 8 0 22 -4 30 -9z m89 -40 c133 -67 264 -200 337 -342 36
-70 29 -72 -9 -3 -78 145 -180 249 -318 328 -94 53 -99 63 -10 17z m-629 -660
l0 -470 -120 0 -120 0 0 470 0 470 120 0 120 0 0 -470z m750 448 c57 -29 90
-89 90 -165 l0 -53 -222 -2 -223 -3 0 -225 0 -225 100 0 100 0 0 45 c0 51 -2
51 -97 36 l-48 -8 0 111 c0 107 1 111 23 116 12 3 87 16 167 30 80 14 157 28
173 31 l27 6 0 -306 0 -306 -342 2 -343 3 0 410 c0 393 1 411 20 445 12 21 39
44 65 58 42 21 56 22 255 22 199 0 213 -1 255 -22z m-1184 -165 c-8 -15 -15
-25 -16 -21 0 12 23 58 27 54 3 -2 -2 -17 -11 -33z m-19 -55 c-3 -8 -6 -5 -6
6 -1 11 2 17 5 13 3 -3 4 -12 1 -19z m-20 -80 c-3 -8 -6 -5 -6 6 -1 11 2 17 5
13 3 -3 4 -12 1 -19z m5 -118 c-1 -53 18 -168 38 -237 125 -413 630 -648 1030
-479 36 16 73 28 83 28 10 -1 15 4 11 10 -4 7 -2 8 5 4 17 -11 56 17 126 89
33 34 41 41 18 16 -23 -25 -43 -50 -44 -56 -1 -5 -33 -31 -72 -57 -54 -36 -74
-45 -84 -36 -10 8 -12 7 -7 -5 5 -15 -32 -45 -43 -34 -2 3 5 8 16 12 12 3 19
11 15 16 -4 6 -10 6 -18 0 -7 -6 -50 -20 -97 -31 -112 -27 -274 -27 -384 -1
-305 74 -539 313 -595 611 -7 36 -17 70 -22 76 -5 7 -5 49 -1 95 6 77 8 81 16
49 5 -19 9 -51 9 -70z m1505 48 c-3 -7 -5 -2 -5 12 0 14 2 19 5 13 2 -7 2 -19
0 -25z m80 -20 c-3 -7 -5 -2 -5 12 0 14 2 19 5 13 2 -7 2 -19 0 -25z m-1590
-280 c-3 -8 -6 -5 -6 6 -1 11 2 17 5 13 3 -3 4 -12 1 -19z m52 -131 c11 -26
18 -47 15 -47 -5 0 -44 86 -44 97 0 12 9 -4 29 -50z m1390 -27 c-13 -22 -35
-55 -51 -73 -16 -18 -8 -1 19 41 50 78 68 96 32 32z m-1330 -79 c31 -49 116
-134 181 -183 19 -15 71 -45 115 -68 44 -23 69 -38 55 -34 -108 29 -312 194
-373 302 -28 49 -13 38 22 -17z m476 -315 c28 -8 41 -14 30 -14 -21 0 -107 25
-90 27 6 0 33 -6 60 -13z m302 -12 c-3 -3 -12 -4 -19 -1 -8 3 -5 6 6 6 11 1
17 -2 13 -5z m-104 -11 c-24 -2 -62 -2 -85 0 -24 2 -5 4 42 4 47 0 66 -2 43
-4z"/>
</g>
</svg>
