<?xml version="1.0" standalone="no"?>
<!DOCTYPE svg PUBLIC "-//W3C//DTD SVG 20010904//EN"
 "http://www.w3.org/TR/2001/REC-SVG-20010904/DTD/svg10.dtd">
<svg version="1.0" xmlns="http://www.w3.org/2000/svg"
 width="205.000000pt" height="189.000000pt" viewBox="0 0 205.000000 189.000000"
 preserveAspectRatio="xMidYMid meet">

<g transform="translate(0.000000,189.000000) scale(0.100000,-0.100000)"
fill="#ffffff" stroke="none">
<path d="M885 1879 c-280 -36 -555 -196 -711 -415 -58 -81 -119 -211 -145
-309 -31 -113 -31 -317 0 -430 89 -331 341 -581 701 -693 81 -25 96 -26 300
-26 204 0 219 1 300 26 181 56 317 134 439 252 129 125 220 278 261 440 28
111 28 321 0 432 -84 329 -360 598 -711 693 -140 38 -288 48 -434 30z m123
-256 c-10 -2 -28 -2 -40 0 -13 2 -5 4 17 4 22 1 32 -1 23 -4z m-105 -20 c-7
-2 -21 -2 -30 0 -10 3 -4 5 12 5 17 0 24 -2 18 -5z m244 1 c-3 -3 -12 -4 -19
-1 -8 3 -5 6 6 6 11 1 17 -2 13 -5z m-347 -23 c-61 -20 -125 -51 -182 -89 -21
-14 -41 -23 -44 -20 -9 10 152 98 216 118 14 5 34 8 45 9 11 0 -5 -8 -35 -18z
m474 -8 c185 -82 321 -224 408 -425 25 -58 31 -87 31 -138 0 -52 1 -58 7 -30
5 22 7 -8 7 -80 -1 -64 -2 -85 -4 -47 -2 37 -8 67 -12 67 -5 0 -12 26 -15 58
-19 164 -61 257 -166 362 -41 41 -91 88 -110 103 l-35 28 38 -20 c54 -29 56
-26 11 13 -44 39 -132 86 -214 115 -36 13 -47 20 -31 20 13 1 51 -11 85 -26z
m-290 -22 c3 -4 -29 -11 -72 -14 -201 -16 -403 -155 -504 -349 -21 -40 -38
-79 -38 -86 0 -7 -4 -10 -10 -7 -5 3 -7 0 -4 -9 3 -8 -1 -39 -10 -70 -37 -128
0 -326 84 -451 109 -161 235 -250 425 -301 84 -22 113 -26 185 -21 157 10 294
63 414 160 70 56 153 193 177 293 6 27 16 54 22 59 10 10 6 -13 -8 -47 -4 -11
-3 -18 4 -18 5 0 15 19 21 43 16 62 20 68 14 17 -7 -55 -54 -158 -101 -223
-20 -26 -33 -50 -30 -53 3 -3 14 7 23 23 10 15 22 30 26 33 13 10 88 162 88
180 0 11 5 22 10 25 5 3 10 16 11 28 0 12 3 16 6 9 8 -20 -47 -159 -87 -221
-20 -31 -56 -77 -81 -102 -47 -49 -131 -119 -143 -119 -4 0 -22 -11 -39 -24
-47 -35 -164 -86 -211 -91 -39 -4 -39 -4 -8 4 18 5 35 10 37 12 2 3 -58 4
-133 4 -136 0 -152 2 -247 25 -149 38 -332 180 -403 315 -15 28 -39 79 -54
115 -30 71 -38 59 -12 -17 17 -51 46 -112 83 -178 l23 -40 -22 25 c-30 34 -74
123 -94 190 -26 86 -32 258 -12 361 29 153 116 322 204 394 l37 30 -34 -42
c-19 -24 -37 -43 -41 -43 -4 0 -12 -10 -18 -22 -7 -13 -19 -34 -29 -48 -10
-14 21 12 69 57 68 64 106 91 180 127 119 58 285 95 302 67z m146 -1 c-11 -7
-2 -9 30 -5 30 3 37 2 20 -3 -25 -8 -25 -8 8 -15 17 -4 32 -11 32 -17 0 -6
-12 -5 -33 3 -18 8 -59 18 -92 22 -53 7 -57 9 -30 16 17 3 41 7 55 8 20 0 22
-1 10 -9z m130 -20 c11 -8 7 -9 -15 -4 -37 8 -45 14 -19 14 10 0 26 -5 34 -10z
m106 -45 c24 -18 7 -19 -26 0 -16 9 -19 14 -9 15 8 0 24 -7 35 -15z m-4 -47
c95 -63 170 -146 221 -245 25 -48 48 -106 51 -128 6 -35 4 -33 -12 15 -51 152
-165 287 -322 384 -25 15 -35 24 -22 21 13 -4 50 -25 84 -47z m-607 -543 l0
-410 -115 0 -115 0 -3 400 c-1 220 0 406 3 413 3 9 33 12 117 10 l113 -3 0
-410z m666 400 c47 -25 69 -70 69 -142 l0 -63 -192 -2 -193 -3 0 -190 0 -190
78 -3 77 -3 0 36 0 37 -42 -8 c-78 -13 -73 -20 -73 96 l0 105 145 27 c80 15
157 27 173 27 l27 1 0 -270 0 -270 -307 2 -308 3 -3 345 c-2 222 1 358 8 382
5 20 26 50 45 67 l36 31 215 0 c175 0 221 -3 245 -15z m246 -457 c-2 -24 -4
-7 -4 37 0 44 2 63 4 43 2 -21 2 -57 0 -80z m34 -15 c-9 -16 -10 -16 -11 3 0
12 3 37 8 55 l7 34 3 -37 c2 -21 -1 -46 -7 -55z m-1136 -484 c20 -22 20 -22 0
-11 -11 5 -29 20 -40 33 -20 22 -20 22 0 11 11 -5 29 -20 40 -33z m101 -67
c-6 -5 -56 21 -56 29 0 5 13 0 29 -9 16 -9 28 -18 27 -20z m134 -47 c30 -7 44
-13 30 -13 -24 0 -115 25 -95 27 6 0 35 -6 65 -14z m107 -21 c-3 -3 -12 -4
-19 -1 -8 3 -5 6 6 6 11 1 17 -2 13 -5z m203 2 c0 -2 -18 -6 -39 -8 -22 -2
-37 0 -35 4 5 8 74 11 74 4z"/>
<path d="M321 994 c0 -11 3 -14 6 -6 3 7 2 16 -1 19 -3 4 -6 -2 -5 -13z"/>
<path d="M312 810 c0 -14 2 -19 5 -12 2 6 2 18 0 25 -3 6 -5 1 -5 -13z"/>
</g>
</svg>
